<svg width="478" height="110" viewBox="0 0 478 110" fill="none" xmlns="http://www.w3.org/2000/svg">
<path d="M19.416 44.68H27.096C31.448 44.68 34.8613 43.656 37.336 41.608C39.896 39.56 41.176 36.616 41.176 32.776C41.176 28.936 39.9813 26.0347 37.592 24.072C35.2027 22.1093 31.7467 21.128 27.224 21.128C25.688 21.128 24.28 21.1707 23 21.256C21.8053 21.3413 20.6107 21.4693 19.416 21.64V44.68ZM28.376 60.04H0.0880003V14.216C0.0880003 12.5947 0.557334 11.3147 1.496 10.376C2.43467 9.43733 3.672 8.712 5.208 8.2C8.024 7.17599 11.3947 6.45066 15.32 6.02399C19.2453 5.59733 22.7867 5.384 25.944 5.384C37.464 5.384 46.168 7.85866 52.056 12.808C58.0293 17.672 61.016 24.328 61.016 32.776C61.016 38.2373 59.6933 43.016 57.048 47.112C54.488 51.208 50.776 54.408 45.912 56.712C41.048 58.9307 35.2027 60.04 28.376 60.04ZM0.0880003 51.464H19.544V84.872C18.776 85.128 17.5387 85.3413 15.832 85.512C14.1253 85.768 12.376 85.896 10.584 85.896C6.744 85.896 4.01333 85.2133 2.392 83.848C0.856 82.4827 0.0880003 80.0933 0.0880003 76.68V51.464ZM73.064 51.208L92.136 51.592V84.872C91.2827 85.128 90.088 85.3413 88.552 85.512C87.016 85.768 85.352 85.896 83.56 85.896C79.976 85.896 77.3307 85.256 75.624 83.976C73.9173 82.696 73.064 80.392 73.064 77.064V51.208ZM92.136 61.448L73.064 61.064V1.672C73.9173 1.416 75.112 1.16 76.648 0.903999C78.184 0.647998 79.848 0.519997 81.64 0.519997C85.3093 0.519997 87.9547 1.16 89.576 2.43999C91.2827 3.71999 92.136 6.06666 92.136 9.48V61.448ZM132.89 72.84C134.853 72.84 136.773 72.6693 138.65 72.328C140.613 71.9013 142.021 71.432 142.874 70.92V58.632L132.122 59.656C129.221 59.8267 126.917 60.424 125.21 61.448C123.503 62.472 122.65 64.008 122.65 66.056C122.65 68.104 123.461 69.768 125.082 71.048C126.703 72.2427 129.306 72.84 132.89 72.84ZM132.122 21.64C140.997 21.64 148.079 23.5173 153.37 27.272C158.661 30.9413 161.306 36.6587 161.306 44.424V73.48C161.306 75.6133 160.751 77.3627 159.642 78.728C158.533 80.008 157.125 81.1173 155.418 82.056C152.858 83.592 149.658 84.7867 145.818 85.64C142.063 86.5787 137.754 87.048 132.89 87.048C124.186 87.048 117.231 85.3413 112.026 81.928C106.906 78.5147 104.346 73.4373 104.346 66.696C104.346 60.8933 106.138 56.456 109.722 53.384C113.306 50.2267 118.639 48.3067 125.722 47.624L142.746 45.832V44.296C142.746 41.3947 141.594 39.304 139.29 38.024C137.071 36.744 133.871 36.104 129.69 36.104C126.447 36.104 123.247 36.488 120.09 37.256C117.018 38.024 114.245 38.92 111.77 39.944C110.746 39.2613 109.85 38.2373 109.082 36.872C108.399 35.4213 108.058 33.928 108.058 32.392C108.058 28.808 110.021 26.2053 113.946 24.584C116.421 23.56 119.279 22.8347 122.522 22.408C125.85 21.896 129.05 21.64 132.122 21.64ZM184.664 69.768C183.299 66.952 181.805 63.5387 180.184 59.528C178.648 55.5173 177.027 50.7813 175.32 45.32C173.613 39.8587 171.779 33.544 169.816 26.376C170.925 25.2667 172.333 24.328 174.04 23.56C175.832 22.7067 177.752 22.28 179.8 22.28C182.445 22.28 184.621 22.8347 186.328 23.944C188.035 25.0533 189.315 27.144 190.168 30.216C192.131 36.4453 194.093 42.632 196.056 48.776C198.019 54.92 200.024 61.1067 202.072 67.336H202.584C204.035 63.496 205.485 59.144 206.936 54.28C208.472 49.416 209.88 44.424 211.16 39.304C212.44 34.0987 213.549 29.1067 214.488 24.328C215.683 23.7307 216.963 23.2613 218.328 22.92C219.693 22.4933 221.101 22.28 222.552 22.28C225.197 22.28 227.459 22.8773 229.336 24.072C231.299 25.1813 232.28 27.1013 232.28 29.832C232.28 32.2213 231.896 35.1653 231.128 38.664C230.445 42.1627 229.507 45.96 228.312 50.056C227.117 54.0667 225.709 58.2053 224.088 62.472C222.467 66.6533 220.76 70.7067 218.968 74.632C217.261 78.5573 215.512 82.0987 213.72 85.256C209.112 93.2773 204.845 99.2507 200.92 103.176C197.08 107.187 193.24 109.192 189.4 109.192C186.328 109.192 183.768 108.253 181.72 106.376C179.757 104.499 178.563 102.109 178.136 99.208C180.013 97.672 181.933 95.88 183.896 93.832C185.859 91.8693 187.736 89.736 189.528 87.432C191.32 85.2133 192.899 82.9947 194.264 80.776C192.813 80.3493 191.32 79.4107 189.784 77.96C188.248 76.5093 186.541 73.7787 184.664 69.768Z" fill="white"/>
<path d="M300.926 45.192V57.224H281.854V45.832C281.854 42.6747 280.915 40.3707 279.038 38.92C277.246 37.384 274.857 36.616 271.87 36.616C269.737 36.616 267.774 36.9147 265.982 37.512C264.19 38.024 262.569 38.664 261.118 39.432V57.224H242.174V37.256C242.174 35.1227 242.601 33.3733 243.454 32.008C244.393 30.5573 245.715 29.2773 247.422 28.168C250.153 26.2907 253.651 24.7547 257.918 23.56C262.185 22.28 266.878 21.64 271.998 21.64C281.214 21.64 288.339 23.688 293.374 27.784C298.409 31.7947 300.926 37.5973 300.926 45.192ZM242.174 51.336H261.118V84.872C260.265 85.128 259.07 85.3413 257.534 85.512C255.998 85.768 254.334 85.896 252.542 85.896C248.958 85.896 246.313 85.256 244.606 83.976C242.985 82.696 242.174 80.392 242.174 77.064V51.336ZM281.854 51.336H300.926V84.872C300.073 85.128 298.878 85.3413 297.342 85.512C295.806 85.768 294.142 85.896 292.35 85.896C288.766 85.896 286.121 85.256 284.414 83.976C282.707 82.696 281.854 80.392 281.854 77.064V51.336ZM377.879 54.28C377.879 60.936 376.514 66.7387 373.783 71.688C371.138 76.552 367.383 80.3067 362.519 82.952C357.655 85.5973 351.938 86.92 345.367 86.92C338.882 86.92 333.164 85.64 328.215 83.08C323.351 80.4347 319.554 76.68 316.823 71.816C314.178 66.8667 312.855 61.0213 312.855 54.28C312.855 47.5387 314.22 41.7787 316.951 37C319.682 32.136 323.479 28.3813 328.343 25.736C333.292 23.0053 338.967 21.64 345.367 21.64C351.852 21.64 357.527 23.0053 362.391 25.736C367.255 28.3813 371.052 32.1787 373.783 37.128C376.514 41.992 377.879 47.7093 377.879 54.28ZM345.367 36.616C341.356 36.616 338.156 38.152 335.767 41.224C333.463 44.296 332.311 48.648 332.311 54.28C332.311 59.9973 333.463 64.392 335.767 67.464C338.071 70.4507 341.271 71.944 345.367 71.944C349.463 71.944 352.663 70.408 354.967 67.336C357.271 64.264 358.423 59.912 358.423 54.28C358.423 48.7333 357.271 44.424 354.967 41.352C352.663 38.1947 349.463 36.616 345.367 36.616ZM431.801 47.88C430.862 52.1467 429.71 56.5413 428.345 61.064C426.98 65.5867 425.657 69.8107 424.377 73.736C423.182 77.6613 422.201 80.8187 421.433 83.208C420.409 84.0613 419.001 84.744 417.209 85.256C415.417 85.8533 413.284 86.152 410.809 86.152C407.908 86.152 405.305 85.7253 403.001 84.872C400.782 84.0187 399.289 82.7813 398.521 81.16C397.753 79.4533 396.857 77.0213 395.833 73.864C394.894 70.7067 393.913 67.1227 392.889 63.112C391.865 59.016 390.841 54.7493 389.817 50.312C388.878 45.8747 387.982 41.608 387.129 37.512C386.276 33.3307 385.593 29.576 385.081 26.248C386.105 25.224 387.47 24.328 389.177 23.56C390.969 22.7067 392.932 22.28 395.065 22.28C397.71 22.28 399.844 22.92 401.465 24.2C403.172 25.3947 404.196 27.4427 404.537 30.344C405.39 36.1467 406.158 41.224 406.841 45.576C407.524 49.8427 408.121 53.512 408.633 56.584C409.23 59.656 409.7 62.1733 410.041 64.136C410.468 66.0133 410.809 67.5067 411.065 68.616H411.577C412.089 66.6533 412.857 63.6667 413.881 59.656C414.905 55.56 416.142 50.9093 417.593 45.704C419.044 40.4133 420.494 35.08 421.945 29.704C423.396 28.8507 424.889 28.2107 426.425 27.784C427.961 27.3573 429.753 27.144 431.801 27.144C434.446 27.144 436.708 27.5707 438.585 28.424C440.462 29.2773 441.657 30.5573 442.169 32.264C443.705 37.4693 445.113 42.504 446.393 47.368C447.758 52.232 448.953 56.5413 449.977 60.296C451.001 63.9653 451.726 66.7387 452.153 68.616H452.793C453.988 61.7893 455.182 54.6213 456.377 47.112C457.572 39.6027 458.638 32.0933 459.577 24.584C462.222 23.048 465.124 22.28 468.281 22.28C470.926 22.28 473.06 22.8773 474.681 24.072C476.388 25.1813 477.241 27.1013 477.241 29.832C477.241 31.112 477.028 33.0747 476.601 35.72C476.174 38.3653 475.577 41.4373 474.809 44.936C474.041 48.3493 473.188 51.976 472.249 55.816C471.31 59.656 470.329 63.368 469.305 66.952C468.366 70.536 467.47 73.736 466.617 76.552C465.764 79.368 464.996 81.5867 464.313 83.208C463.374 84.0613 461.838 84.744 459.705 85.256C457.572 85.8533 455.268 86.152 452.793 86.152C446.478 86.152 442.766 84.616 441.657 81.544C440.889 79.24 439.865 76.2533 438.585 72.584C437.39 68.9147 436.196 64.9467 435.001 60.68C433.806 56.328 432.74 52.0613 431.801 47.88Z" fill="#790DB6"/>
</svg>
